# xmcd CD database file
#
# Track frame offsets:
#	150
#	17273
#	32112
#	50362
#	66530
#	88270
#	91323
#	109879
#	130881
#	152126
#	169345
#
# Disc length: 2419 seconds
#
# Revision: 0
# Processed by: cddbd v1.5.1PL2 Copyright (c) Steve Scherf et al.
# Submitted via: CDex 1.51
#
DISCID=9109710b
DTITLE=Big Mama - Big Mama's Gift
DYEAR=2005
DGENRE=Jazz
TTITLE0=Have Yourself A Merry Christmas
TTITLE1=Jingel Bell Rock
TTITLE2=The Christmas Song
TTITLE3=Let It Snow
TTITLE4=Angel We Have Heard On High
TTITLE5=We Wish You A Merry Christmas
TTITLE6=The Little Drummer Boy
TTITLE7=The First Noel
TTITLE8=Grown Up Christmas List
TTITLE9=White Christmas
TTITLE10=꿈의 크리스마스
EXTD=YEAR: 2005
EXTT0=
EXTT1=
EXTT2=
EXTT3=
EXTT4=
EXTT5=
EXTT6=
EXTT7=
EXTT8=
EXTT9=
EXTT10=
PLAYORDER=
